<?xml version="1.0" encoding="utf-8"?>
<!-- Generator: Adobe Illustrator 25.3.1, SVG Export Plug-In . SVG Version: 6.00 Build 0)  -->
<svg version="1.1" xmlns="http://www.w3.org/2000/svg" xmlns:xlink="http://www.w3.org/1999/xlink" x="0px" y="0px"
	 viewBox="0 0 500 500" style="enable-background:new 0 0 500 500;" xml:space="preserve">
<style type="text/css">
	.st0{fill:none;}
	.st1{fill:#FFFFFF;}
	.st2{display:none;}
	.st3{display:inline;fill:#FFFFFF;}
	.st4{display:none;fill:url(#New_Pattern_2);}
	.st5{fill:#FFFFFF;stroke:#000000;stroke-miterlimit:10;}
	.st6{fill:#110809;}
	.st7{fill:none;stroke:#110809;stroke-width:2;stroke-miterlimit:10;}
	.st8{fill:#5757FF;}
	.st9{fill:#C9CDD1;}
	.st10{fill:none;stroke:#FFFFFF;stroke-miterlimit:10;}
	.st11{fill:none;stroke:#000000;stroke-width:2;stroke-miterlimit:10;}
	.st12{fill:#7A483A;}
	.st13{stroke:#FFFFFF;stroke-miterlimit:10;}
	.st14{fill:none;stroke:#000000;stroke-miterlimit:10;}
	.st15{fill:none;stroke:#FFFFFF;stroke-width:2;stroke-miterlimit:10;}
	.st16{fill:#5757FF;stroke:#000000;stroke-miterlimit:10;}
	.st17{display:inline;}
	.st18{fill:#112129;}
</style>
<pattern  width="54" height="54" patternUnits="userSpaceOnUse" id="New_Pattern_2" viewBox="0 -54 54 54" style="overflow:visible;">
	<g>
		<rect y="-54" class="st0" width="54" height="54"/>
		<rect y="-54" class="st1" width="54" height="54"/>
		<path d="M4.33-49.39c0.04-0.53,0.5-0.93,1.03-0.9c0.53,0.04,0.93,0.5,0.9,1.03c-0.04,0.53-0.5,0.93-1.03,0.9
			C4.69-48.39,4.29-48.86,4.33-49.39z"/>
		<path d="M23.68-49.39c0.04-0.53,0.5-0.93,1.03-0.9c0.53,0.04,0.93,0.5,0.9,1.03s-0.5,0.93-1.03,0.9
			C24.05-48.39,23.65-48.86,23.68-49.39z"/>
		<path d="M41.15-49.39c0.04-0.53,0.5-0.93,1.03-0.9c0.53,0.04,0.93,0.5,0.9,1.03c-0.04,0.53-0.5,0.93-1.03,0.9
			C41.51-48.39,41.11-48.86,41.15-49.39z"/>
		<path d="M4.33-32.02c0.04-0.53,0.5-0.93,1.03-0.9c0.53,0.04,0.93,0.5,0.9,1.03c-0.04,0.53-0.5,0.93-1.03,0.9
			S4.29-31.49,4.33-32.02z"/>
		<path d="M23.68-32.02c0.04-0.53,0.5-0.93,1.03-0.9c0.53,0.04,0.93,0.5,0.9,1.03s-0.5,0.93-1.03,0.9
			C24.05-31.03,23.65-31.49,23.68-32.02z"/>
		<path d="M41.15-32.02c0.04-0.53,0.5-0.93,1.03-0.9c0.53,0.04,0.93,0.5,0.9,1.03c-0.04,0.53-0.5,0.93-1.03,0.9
			C41.51-31.03,41.11-31.49,41.15-32.02z"/>
		<path d="M4.33-14.66c0.04-0.53,0.5-0.93,1.03-0.9c0.53,0.04,0.93,0.5,0.9,1.03c-0.04,0.53-0.5,0.93-1.03,0.9
			C4.69-13.67,4.29-14.13,4.33-14.66z"/>
		<path d="M23.68-14.66c0.04-0.53,0.5-0.93,1.03-0.9c0.53,0.04,0.93,0.5,0.9,1.03c-0.04,0.53-0.5,0.93-1.03,0.9
			C24.05-13.67,23.65-14.13,23.68-14.66z"/>
		<path d="M41.15-14.66c0.04-0.53,0.5-0.93,1.03-0.9c0.53,0.04,0.93,0.5,0.9,1.03c-0.04,0.53-0.5,0.93-1.03,0.9
			C41.51-13.67,41.11-14.13,41.15-14.66z"/>
	</g>
</pattern>
<g id="BACKGROUND" class="st2">
	<rect id="XMLID_28_" y="0" class="st3" width="500" height="500"/>
</g>
<g id="OBJEKTS">
	<g id="XMLID_55_" class="st2">
	</g>
	<g id="XMLID_122_" class="st2">
	</g>
	<g>
		<path class="st4" d="M156.81,349.71c-2.69-0.03-5.38-0.06-8.07-0.08c-17.37-0.18-35.97-0.75-50.06-10.91
			c-20.87-15.05-26.92-43.94-18.68-67.1c8.46-23.79,25.43-42.9,43.15-59.88c20.47-19.62,42.51-37.36,65.81-52.96
			c23.94-16.03,49.83-30.02,77.81-34.03c25.09-3.6,51.1,1.42,73.36,13.42c8.04,4.33,16.31,7.72,21.88,15.06
			c8.48,11.19,16.29,22.41,26.15,32.53c8.14,8.36,17.63,16.08,23.91,25.96c6.9,10.84,9.14,23.48,9.82,36.12
			c1.28,23.95-2.05,48.14-9.75,70.85c-2.56,7.53-5.84,15.25-12.06,20.2c-5.26,4.18-12.02,5.9-18.61,7.2
			c-28.53,5.63-57.85,5.35-86.93,5.05C248.63,350.66,202.72,350.19,156.81,349.71z"/>
		<path d="M280.17,364.82c0.75,0.01,1.5-0.08,2.07-0.16c2.95-0.42,5.91,0.14,8.86,0.28c1.46,0.07,2.83-0.15,4.28-0.23
			c1.12-0.06,2.19,0.03,3.13-0.75c0.53-0.44,0.87-1.17,0.67-1.83c-0.28-0.95-1.42-1.29-2.38-1.49c-2.36-0.49-4.72-0.97-7.08-1.46
			c-0.95-0.2-2.8-0.6-3.01-1.78c-0.1-0.57,0.23-1.53,0.28-2.13c0.07-0.75,0.12-1.5,0.15-2.25c0.06-1.36,0.5-2.69-1.22-2.78
			c-1.84-0.1-3.67-0.2-5.51-0.3c-0.17-0.01-0.36-0.02-0.51,0.06c-0.27,0.13-0.38,0.47-0.45,0.76c-0.25,1.01-0.5,2.02-0.75,3.04
			c-0.39,1.57-0.78,3.15-1.03,4.75c-0.18,1.14-0.15,2.29-0.26,3.43c-0.07,0.7-0.26,1.4,0.26,1.98
			C278.25,364.61,279.21,364.81,280.17,364.82z"/>
		<path d="M293.87,370.99c0.1,0.47,0.31,0.83,0.68,1.02c0.73,0.37,1.99,0.3,2.79,0.45c1.32,0.23,2.67,0.38,4.02,0.26
			c1-0.09,1.98-0.32,2.98-0.36c2.85-0.12,5.76,0.97,8.57,0.17c0.97-0.28,2.61-0.9,2.9-2.01c0.38-1.45-0.91-2.37-2.11-2.71
			c-1.55-0.43-3.16-0.63-4.77-0.67c-0.65-0.02-1.31-0.01-1.94-0.15c-1.62-0.37-2.25-1.68-1.89-3.18c0.48-2,0.95-4,1.42-6
			c-3.29-0.45-6.63,0.1-9.9,0.65c-0.2,0.03-0.42,0.08-0.56,0.23c-0.1,0.11-0.14,0.27-0.18,0.42c-0.52,2.18-0.25,4.24-0.99,6.33
			C294.53,366.44,293.53,369.36,293.87,370.99z"/>
		<g>
			<g>
				<path class="st5" d="M202.45,246.02c0.63-0.22,1.31-0.33,1.96-0.48c1.25-0.29,1.98-0.88,2.86-1.75
					c0.56-0.55,1.14-1.12,1.86-1.43c2.31-0.99,3.47,1.02,2.62,3c-0.66,1.55-1.72,3.15-3.27,3.93c-1.7,0.86-3.45,0.91-4.98,2.13
					c-0.39,0.31-4.45,3.72-4.28,3.93c-0.76-0.95-2.41-3-2.32-4.28c1.14-0.33,1.91-1.13,2.56-2.09c0.64-0.94,1.22-1.98,2.19-2.58
					C201.91,246.24,202.17,246.12,202.45,246.02z"/>
				<g>
					<g>
						<rect id="XMLID_696_" x="166.36" y="297.96" class="st6" width="1.75" height="38.62"/>
						<path id="XMLID_695_" class="st7" d="M151.93,344.68c0-5.7,10.09-8.09,15.13-8.1c6-0.01,15.13,2.2,15.13,8.1"/>
						<line id="XMLID_694_" class="st7" x1="167.23" y1="346.21" x2="167.23" y2="336.74"/>
						<path id="XMLID_693_" class="st6" d="M184.67,346.06c0,1.37-1.11,2.48-2.48,2.48c-1.37,0-2.48-1.11-2.48-2.48
							c0-1.37,1.11-2.48,2.48-2.48C183.56,343.58,184.67,344.69,184.67,346.06z"/>
						<path id="XMLID_692_" class="st6" d="M169.66,346.06c0,1.37-1.11,2.48-2.48,2.48c-1.37,0-2.48-1.11-2.48-2.48
							c0-1.37,1.11-2.48,2.48-2.48C168.55,343.58,169.66,344.69,169.66,346.06z"/>
						<path id="XMLID_691_" class="st6" d="M154.66,346.06c0,1.37-1.11,2.48-2.48,2.48c-1.37,0-2.48-1.11-2.48-2.48
							c0-1.37,1.11-2.48,2.48-2.48C153.55,343.58,154.66,344.69,154.66,346.06z"/>
						<path id="XMLID_690_" class="st5" d="M165.54,285v-28.41c0-4.92-3.99-8.9-8.9-8.9h-9.8c-4.92,0-8.9,3.99-8.9,8.9v31.76
							c0,7.02,5.74,12.76,12.76,12.76h14.69h17.28c0.83,0,1.5-0.67,1.5-1.5l0,0c0-0.83-0.67-1.5-1.5-1.5h-4
							C171.4,298.11,165.54,292.24,165.54,285z"/>
					</g>
					<g>
						<g id="XMLID_609_">
							<path id="XMLID_697_" class="st5" d="M227.52,338.16c0.24,0.42,0.48,0.84,0.76,1.24c0.89,1.26,2.83,2.38,4.42,2.17
								c1.71-0.23,3.39-0.83,5.12-0.75c0.64,0.03,1.31,0.18,1.76,0.62c2,1.95-2.76,3.68-4.07,4.08c-2.98,0.89-5.96,1.78-8.93,2.68
								c-0.56,0.17-1.14,0.34-1.72,0.23c-1.22-0.17-1.75-0.99-2.08-2.02c-0.43-1.31-0.94-2.56-1.46-3.85
								c-0.83-2.08-1.5-4.23-1.98-6.41c-0.13-0.61-0.25-1.25-0.08-1.85c0.25-0.88,1.19-1.62,2.1-1.62c0.41,0,0.81,0.13,1.2,0.25
								C225.33,333.79,226.18,335.76,227.52,338.16z"/>
							<path d="M210.59,292.46c0.06-1.98-0.19-3.95-0.88-5.8c-1.08-2.9-3.33-5.44-6.26-6.45c-1.65-0.57-3.43-0.64-5.18-0.7
								c-7.56-0.27-15.11-0.53-22.67-0.8c-6.57-0.23-14.17,5.09-13.97,12.31c0.12,4.46,3.17,9.09,7.98,9.24c0.11,0,0.21-0.01,0.32,0
								c7.18,0.04,14.36,0.08,21.53,0.12c5.04,0.03,11.62,2.12,16.18-0.67c0.63-0.39,1.24-0.86,1.66-1.47
								c0.5-0.72,0.72-1.58,0.89-2.43C210.41,294.71,210.55,293.59,210.59,292.46z"/>
							<path id="XMLID_666_" d="M181.09,290c6.93,3.77-5.85,10.25-12.51,10.27L157,300.29c-6.7,0-11.9-3.36-12.11-9.97v-20
								l25.66,0.06C170.55,270.38,173.56,285.91,181.09,290z"/>
							<path d="M206.16,293.11c-5.39-3.59-27.13-8.87-30.09-10.03c-5.87-2.31-12.33-3.27-18.6-2.45c-5.32,0.7-10.89,1.6-12.21,7.6
								c-1.18,5.37,2.22,10.69,7.59,11.87c0.12,0.03,0.24,0.04,0.36,0.07l49.93,9.86c0.11,0.03,0.22,0.07,0.33,0.09
								c0.27,0.06,0.53,0.1,0.8,0.13c3.92,0.45,7.08-1.84,7.94-5.77C213.17,300.17,210.71,296.14,206.16,293.11z"/>
							<path id="XMLID_698_" class="st5" d="M199.44,340.53c0.02,1.5,0.23,2.81,1.56,4.08c1.96,1.86,5,2.13,7.11,3.82
								c0.19,0.15,0.38,0.32,0.48,0.55c0.19,0.43-0.01,0.96-0.35,1.29c-1.85,1.77-6.1,0.04-8.26-0.35
								c-2.71-0.48-5.43-0.97-8.14-1.45c-0.72-0.13-1.2-0.82-1.05-1.54l1.56-7.74l0.22-1.15c0.37-1.9,2.23-3.12,4.12-2.71
								c1.63,0.36,2.76,1.89,2.76,3.59C199.45,339.48,199.44,340.02,199.44,340.53z"/>
							<path class="st5" d="M171.69,241.75c-0.21-1.12-0.43-2.24-0.64-3.36c0.82,4.86,1.6,9.72,2.34,14.59
								c0.7,4.59,1.16,9.27,2.63,13.7c0.49,1.5,1.22,4.16,2.92,4.77c2.15,0.77,3.58,0.45,5.74,0.47c0.93,0.01,1.87,0.02,2.77-0.22
								c2.51-0.67,4.12-3.09,5.22-5.44c1.23-2.62,2.45-4.33,4.8-6.05c1.63-1.19,3.2-2.47,4.71-3.82c0.55-0.5,1.95-1.38,2.21-2.08
								c0.29-0.78-0.19-1.06-0.75-1.63c-1.81-1.85-3.82-3.54-5.53-5.49c-1.69,1.57-3.39,3.13-5.08,4.7
								c-1.21,1.12-2.41,2.23-3.62,3.35c-0.58,0.54-3.77,2.67-3.72,3.2c-0.32-3.8-0.66-7.66-1.96-11.25
								c-0.15-0.41-0.31-0.83-0.36-1.26c-0.06-0.58,0.09-1.16,0.2-1.73c0.6-3,0.16-6.19-1.14-8.95c-1.38-2.94-3.12-4.56-6.15-5.55
								c-1.83-0.6-3.66-1.2-5.56-1.48c-0.32-0.05-0.75-0.01-0.82,0.3c-0.03,0.12,0.01,0.25,0.04,0.37 M173.03,246.62
								c0.09-0.02,0.19-0.03,0.32-0.05L173.03,246.62z M172.72,246.67c0,0,0.04-0.01,0.11-0.02L172.72,246.67z"/>
							<path d="M228.29,336.17c-4.39-9.1-7.55-18.64-10.94-28.15c-1.63-4.55-3.3-9.23-6.29-13.1c-1.39-1.79-2.65-3.17-4.94-3.67
								c-2.06-0.44-4.24-0.2-6.28,0.26c-1.14,0.26-2.15,0.86-3.28,1.11c-1.52,0.34-3.87-0.02-4.47,1.89
								c-0.27,0.86-0.11,1.79,0.09,2.67c0.34,1.45,0.8,2.86,1.37,4.23c0.74,1.76,1.67,3.45,2.29,5.26c0.47,1.38,0.76,2.82,1.31,4.17
								c0.88,2.16,2.43,4.03,4.33,5.39c1.15,0.82,2.47,1.5,3.28,2.66c0.59,0.85,0.65,1.73,1,2.65c0.92,2.42,1.97,5.01,4.16,6.39
								c0.58,0.36,1.24,0.64,1.66,1.17c0.29,0.36,0.45,0.81,0.61,1.25c0.47,1.32,0.99,2.66,1.85,3.76c0.78,0.99,1.82,1.75,2.62,2.73
								c0.84,1.04,1.05,2.24,1.63,3.4C218.46,340.59,228.35,336.3,228.29,336.17z"/>
							<path class="st5" d="M162.26,228.32c-1.3,0.13-2.6,0.27-3.9,0.4c-4.14,0.43-8.53,0.95-11.76,3.57
								c-3.85,3.11-6.19,8.64-5.35,13.53c0.46,2.69,1.31,5.31,1.6,8.03c0.97,9.05,1.68,18.13,2.13,27.22c4.4-0.2,8.8-0.24,13.2-0.47
								c5.39-0.28,11.47-0.52,16.64-2.48c0.6-7.5,2.64-14.91,2.52-22.43c-0.06-3.68-0.11-7.36-0.17-11.04"/>
							<path d="M209.45,316.3c0.1-0.22,0.2-0.43,0.3-0.65c0.19-0.44,0.34-0.89,0.46-1.35c1.42-5.38,3.3-11.22,2.71-17.03
								c-0.51-5.07-0.47-11.53-5.4-14.62c-4.09-2.56-9.8-4.24-13.35,0.01c-0.75,0.89-1.25,1.97-1.56,3.09
								c-2.17,7.88,1.45,14.66,0.41,22.04c-0.26,1.85-0.52,3.75-0.15,5.58c0.12,0.61,0.32,1.21,0.4,1.82
								c0.2,1.51-0.29,3.02-0.69,4.49c-0.42,1.56-0.76,3.17-0.69,4.79c0.07,1.66,0.57,3.29,0.59,4.96c0.01,1.22-0.23,2.43-0.48,3.63
								c-0.32,1.54-1.82,4.67,0.18,5.3c1.23,0.39,2.66,0.31,3.94,0.64c0.42,0.11,3.51,0.9,5.09,1.44c0.47,0.16,0.94-0.16,1.01-0.65
								c0.29-2.19,1.34-4.49,1.92-6.56c0.76-2.73,1.47-5.47,2.12-8.23c0.31-1.32,0.62-2.65,1.04-3.95
								C207.87,319.39,208.71,317.87,209.45,316.3z"/>
							<path class="st5" d="M172.38,217.86l-1.55-9.4l-6.06,1.41c-3.84,0.89-6.23,4.73-5.34,8.58l0.53,2.3
								c0.22,0.93,0.63,1.76,1.18,2.46l-1.22,5.7c-0.62,2.68,1.13,5.33,3.84,5.82c2.71,0.49,5.27-1.38,5.64-4.11l0.96-6.52
								C172.08,222.6,172.93,220.23,172.38,217.86z"/>
							<path class="st5" d="M174.01,267.6c2.86,0.63,4.93,1.79,7.45,3.14c2.17,1.17,2.6,3.31-0.29,3.84
								c-1.57,0.28-3.19,0.57-4.75,0.23c-1.64-0.35-2.11-1.3-3.16-2.35c-0.9-0.9-2.43-0.46-3.73-1.02c-0.51-0.22-1.01-0.55-1.2-1.07
								c-0.18-0.51,0-1.07,0.2-1.58c0.18-0.45,0.38-0.92,0.74-1.25c0.71-0.65,1.81-0.6,2.75-0.38
								C172.67,267.31,173.34,267.45,174.01,267.6z"/>
							<path id="XMLID_652_" d="M171.16,210.02c-1,0.78-2.22,1.29-3.47,1.5c-1.16,0.2-2.35,0.19-3.47,0.55
								c-3.01,0.95-2.6,4.28-2.34,6.82c0.09,0.89-0.71,3.91-1.96,3.43c-0.82,0-0.95-1.21-1.14-1.74c-0.37-1.01-0.78-2-1.17-3.01
								c-0.27-0.7-0.55-1.42-0.49-2.17c0.08-1.09,0.86-2.01,1.09-3.07c0.18-0.82,0.02-1.68,0.16-2.51c0.18-1.12,0.91-2.12,1.86-2.74
								c1.41-0.93,3.08-0.57,4.5-1.35c0.78-0.43,1.36-1.15,2.07-1.68c1.08-0.79,2.48-1.11,3.8-0.87c1.12,0.21,2.22,0.89,2.62,1.96
								c0.37,0.98,0.09,2.1-0.42,3.02C172.37,208.88,171.82,209.51,171.16,210.02z"/>
							<path id="XMLID_650_" class="st1" d="M163.14,217.75c0.25,1.08-0.42,2.16-1.5,2.42c-1.08,0.25-2.16-0.42-2.42-1.5
								c-0.25-1.08,0.42-2.16,1.5-2.42C161.81,215.99,162.89,216.67,163.14,217.75z"/>
							<path class="st5" d="M141.24,241.54c-0.48,4.09-0.57,8.23-0.81,12.34c-0.26,4.49-0.05,9.04,1.21,13.38
								c0.4,1.36,0.91,2.72,1.83,3.8c3.35,3.9,11.61,2.3,16.16,2.3c3.75,0,7.5,0,11.25,0c0.06-0.17,0.1-0.35,0.16-0.53
								c0.3-1.54,1.3-5.19,1.57-6.74c-2.38-0.19-4.76-0.39-7.14-0.58c-2.06-0.17-4.11-0.34-6.17-0.5c-1.65-0.14-4.17,0.25-4.45-1.94
								c-0.1-0.77,0.01-1.58-0.29-2.29c-0.45-1.06-1.73-1.65-2.02-2.76c-0.22-0.84,0.15-1.87,0.21-2.72
								c0.09-1.26,0.68-2.42,1.18-3.58c0.86-1.99,1.49-4.07,1.87-6.2c-0.12-0.01-0.24-0.02-0.36-0.02"/>
						</g>
					</g>
				</g>
				<g id="XMLID_581_">
					<path id="XMLID_587_" class="st8" d="M222.89,272.95h-43.6l0,0c0-0.84,0.68-1.52,1.52-1.52h42.07V272.95z"/>
					<path id="XMLID_586_" class="st8" d="M230.38,271.42h-43.56l7.77-23.01c0.27-0.79,1.06-1.33,1.96-1.33h39.27
						c1.38,0,2.37,1.24,1.96,2.45L230.38,271.42z"/>
					<path id="XMLID_585_" class="st8" d="M229.62,272.95h-43.01v-1.52l43.77-2v2.76C230.38,272.61,230.04,272.95,229.62,272.95z"/>
					<path id="XMLID_582_" class="st9" d="M212.88,259.8c-0.85-0.04-1.66-0.72-1.08-1.72c0.24-0.42,0.72-0.64,1.23-0.66
						c0.02,0,0.05-0.01,0.07-0.01c0.02,0.01,0.05,0.03,0.08,0.03C214.59,257.79,214.47,259.87,212.88,259.8z"/>
				</g>
				<path class="st5" d="M185.77,258.25c-0.11,0.33-0.33,0.6-0.53,0.87c-0.21,0.28-0.4,0.57-0.57,0.87
					c-0.13,0.23-0.32,0.4-0.42,0.65"/>
			</g>
			<path d="M165.52,223.95c1.33,1.65,3.1,2.92,4.29,4.67c0.14-1.12,0.28-2.23,0.42-3.35c0.08-0.61,0.28-1.16,0.42-1.73
				C168.87,223.94,167.39,224.4,165.52,223.95z"/>
			<path d="M167.6,219.73c0.06,0.57,0.53,1.05,1.09,1.17c0.56,0.12,1.16-0.11,1.55-0.52c0.39-0.42,0.57-1.01,0.54-1.58
				c-0.03-0.01-0.08,0.03-0.06,0.06"/>
			<path d="M161.47,217.48c-0.33-0.07-0.7,0.04-0.92,0.3c-0.22,0.26-0.27,0.65-0.11,0.95c0.16,0.3,0.54,0.47,0.86,0.38"/>
			<path class="st10" d="M192.43,313.44c-0.17-2.06,0.04-4.14,0.62-6.12c0.43-1.48,0.94-2.79,0.59-4.3c-0.34-1.48-0.57-2.69,0-4.22"
				/>
			<path class="st10" d="M211.68,284.48c3.46,8.89,0.5,18.82-1.95,28.04c-1.59,6-2.96,12.07-4.09,18.18"/>
			<path d="M145.31,268.44c-0.07,0.36,0,0.76,0.19,1.07c0.11,0.17,0.25,0.33,0.42,0.43c0.41,0.24,0.93,0.18,1.41,0.11"/>
			<path d="M167.71,249.58c0.04-0.03,0.08-0.07,0.12-0.1"/>
		</g>
		<g>
			<circle cx="259.67" cy="146.29" r="6"/>
			<circle cx="380.67" cy="146.29" r="6"/>
			<circle cx="138.67" cy="146.29" r="6"/>
			<path class="st8" d="M160.02,144.1v-0.21c0-11.73-9.51-21.24-21.24-21.24l0,0c-11.73,0-21.24,9.51-21.24,21.24v0.21H160.02z"/>
			<path class="st8" d="M401.71,144.1v-0.21c0-11.73-9.51-21.24-21.24-21.24l0,0c-11.73,0-21.24,9.51-21.24,21.24v0.21H401.71z"/>
			<line class="st11" x1="380.94" y1="89.54" x2="380.94" y2="122.65"/>
			<path class="st8" d="M280.71,144.1v-0.21c0-11.73-9.51-21.24-21.24-21.24l0,0c-11.73,0-21.24,9.51-21.24,21.24v0.21H280.71z"/>
			<line class="st11" x1="259.94" y1="89.54" x2="259.94" y2="122.65"/>
			<line class="st11" x1="139.72" y1="89.54" x2="139.72" y2="122.65"/>
		</g>
		<g>
			<path class="st5" d="M351.05,259.21c-0.01,1.02,0.08,1.46-0.81,1.85c-0.89,0.38-2.29,0.28-3.26,0.46c-2.12,0.39-4.24,1-6.07,2.19
				c-3.14,2.03-6.88,2.43-10.15,4.51c-0.55,0.35-1.09,0.72-1.71,0.9c-0.78,0.23-1.6,0.13-2.41,0.11c-2.34-0.08-4.84,0.49-6.48,2.16
				c-0.56,0.57-1.02,1.45-0.64,2.15c0.2,0.36,0.58,0.59,0.96,0.76c2.85,1.29,5.84,0.44,8.6-0.61c2.31-0.89,5.18-1.07,7.65-1.25
				c4.11-0.3,8.27-0.07,12.33-0.92c2.18-0.45,4.38-1.01,6.37-2.02c1.83-0.92,4.1-1.84,4.98-3.85c0.17-0.39,0.27-0.8,0.38-1.21
				c0.76-3,1.52-6.01,2.28-9.01c0.58-2.29,0.51-4.69,0.45-7.05c-0.05-1.98-0.4-3.96-1.02-5.84c-0.46-1.4-0.91-3.19-1.71-4.42
				c-0.8-1.25-2.19-2.1-3.67-2.25c-2.97-0.3-5.79,1.63-5.59,4.77c0.24,3.84-1.03,7.62-0.18,11.43c0.1,0.46,0.23,0.91,0.23,1.38
				c0,0.46-0.11,0.9-0.21,1.35C351.06,256.27,351.06,257.73,351.05,259.21z"/>
			<g>
				<path id="XMLID_9_" class="st6" d="M341.34,327.84c1.2,1.78,2.05,3.48,1.73,5.86c-0.47,3.5-3.32,5.82-4.08,9.22
					c-0.07,0.31-0.12,0.63-0.04,0.96c0.16,0.64,0.79,1.14,1.4,1.3c3.3,0.87,6.19-3.99,8.06-5.86c2.35-2.36,4.7-4.73,7.05-7.09
					c0.63-0.63,0.54-1.77-0.19-2.52l-7.87-8.13l-1.16-1.21c-1.92-2-4.79-2.23-6.36-0.49c-1.36,1.5-1.25,4.06,0.13,6.08
					C340.49,326.61,340.93,327.23,341.34,327.84z"/>
				<g>
					
						<rect id="XMLID_106_" x="367.61" y="295.08" transform="matrix(-1 -1.224647e-16 1.224647e-16 -1 736.9774 628.7676)" class="st6" width="1.75" height="38.62"/>
					<path id="XMLID_105_" class="st7" d="M383.8,341.8c0-5.7-10.09-8.09-15.13-8.1c-6-0.01-15.13,2.2-15.13,8.1"/>
					<line id="XMLID_104_" class="st7" x1="368.49" y1="343.32" x2="368.49" y2="333.85"/>
					<path id="XMLID_103_" class="st6" d="M351.06,343.17c0,1.37,1.11,2.48,2.48,2.48c1.37,0,2.48-1.11,2.48-2.48
						c0-1.37-1.11-2.48-2.48-2.48C352.16,340.7,351.06,341.8,351.06,343.17z"/>
					<path id="XMLID_102_" class="st6" d="M366.06,343.17c0,1.37,1.11,2.48,2.48,2.48s2.48-1.11,2.48-2.48
						c0-1.37-1.11-2.48-2.48-2.48S366.06,341.8,366.06,343.17z"/>
					<path id="XMLID_100_" class="st6" d="M381.07,343.17c0,1.37,1.11,2.48,2.48,2.48c1.37,0,2.48-1.11,2.48-2.48
						c0-1.37-1.11-2.48-2.48-2.48C382.18,340.7,381.07,341.8,381.07,343.17z"/>
					<path id="XMLID_99_" class="st5" d="M370.19,282.11V253.7c0-4.92,3.99-8.9,8.9-8.9h9.8c4.92,0,8.9,3.99,8.9,8.9v31.76
						c0,7.02-5.74,12.76-12.76,12.76h-14.69h-17.28c-0.83,0-1.5-0.67-1.5-1.5l0,0c0-0.83,0.67-1.5,1.5-1.5h4
						C364.32,295.22,370.19,289.35,370.19,282.11z"/>
				</g>
				<path id="XMLID_98_" class="st6" d="M338.67,336.88c-0.38,2.11-0.94,3.93-2.83,5.42c-2.77,2.19-6.44,1.87-9.34,3.79
					c-0.26,0.17-0.52,0.37-0.69,0.66c-0.33,0.57-0.22,1.36,0.11,1.91c1.77,2.92,7.22,1.44,9.87,1.39c3.33-0.07,6.66-0.13,10-0.2
					c0.89-0.01,1.62-0.89,1.62-1.94l0-11.31l0.01-1.67c0.02-2.77-1.89-4.93-4.23-4.78c-2.02,0.13-3.73,2.05-4.13,4.45
					C338.91,335.39,338.8,336.15,338.67,336.88z"/>
				<g>
					<path class="st12" d="M357.2,265.68L357.2,265.68c0.01-0.04,0.02-0.08,0.03-0.12L357.2,265.68z"/>
					<polygon class="st12" points="363.89,233.85 363.76,234.47 363.76,234.47 					"/>
					<path class="st12" d="M357.31,265.21c-0.02,0.12-0.05,0.24-0.08,0.35l0.09-0.45C357.31,265.14,357.31,265.18,357.31,265.21z"/>
					<polygon class="st12" points="350.63,240.92 351.68,232.2 350.65,240.92 					"/>
					<path d="M351.99,232.29c0.78-2.31,2.11-4.48,4.35-5.6c0.67-0.34,1.39-0.57,2.1-0.81c1.83-0.6,3.66-1.2,5.56-1.48
						c0.32-0.05,0.75-0.01,0.82,0.3c0.03,0.12-0.01,0.25-0.04,0.37c-0.11,0.5,0.16,0.93,0.09,1.43c-0.09,0.64-0.33,1.28-0.49,1.91
						c-0.33,1.29-0.66,2.63-0.52,3.97c0.21,2.01-0.85,3.7-0.85,5.63c-0.07,0.32-0.99,4.84-1.02,4.84c0,0-11.35-1.92-11.35-1.92
						C351,237.99,351.07,235.04,351.99,232.29z"/>
				</g>
				<path d="M323.69,288.49c-0.13-1.11,0-2.34,0.44-3.69c0.82-2.52,3.27-4.23,5.82-4.96c2.55-0.73,5.25-0.67,7.9-0.77
					c5.31-0.19,10.63-1.87,15.91-1.64c1.37,0.06,2.72,0.44,4.09,0.38c3.61-0.14,6.58-3.19,10.19-3.43c1.18-0.08,2.36,0.16,3.49,0.5
					c1.85,0.56,3.66,1.45,4.92,2.92c2.47,2.88,2.25,7.26,0.83,10.78c-0.57,1.42-1.32,2.79-2.39,3.89c-1.49,1.55-3.48,2.46-5.5,3.12
					c-2.32,0.76-4.25,0.71-6.67,0.69c-5.39-0.04-10.78-0.09-16.17-0.13c-3.96-0.03-7.91,0.48-11.87,0.16
					C329.79,295.91,324.26,293.41,323.69,288.49z"/>
				<path d="M327.68,281.09c1.95-1.5,4.3-2.21,7.03-1.23c1.37,0.49,2.57,1.4,3.53,2.49c4.84,5.49,5.79,14.57,7.22,21.45
					c0.83,4.01,1.56,8.04,2.19,12.09c0.18,1.16,2.21,11.48,1.54,11.82c-0.66,0.33-11.79,1.36-11.69,1.61
					c-2.14-5.56-4.66-11.12-6.4-16.81c-0.98-3.22-2.58-6.19-3.9-9.27c-1.53-3.58-2.87-7.62-3.6-11.45
					C322.79,287.44,324.18,283.77,327.68,281.09z"/>
				<path id="XMLID_94_" class="st8" d="M357.51,289.17c-0.13,0.17-0.26,0.35-0.37,0.54c-3.4,5.41,5.72,6.72,9.01,6.73
					c0,0,11.57,0.02,11.57,0.02c6.7,0,11.9-3.36,12.11-9.97c0,0,0-20,0-20c-4.77,0.01-9.54,0.02-14.32,0.04
					c-2.86,0.01-6.03-0.37-8.86,0.02c-2.03,0.28-1.77-0.18-2.61,1.82c-1.05,2.51-0.51,6.49-0.97,9.22
					c-0.58,3.47-1.71,6.95-3.94,9.67C358.6,287.9,358.01,288.5,357.51,289.17z"/>
				<path class="st8" d="M347.12,305.86c-0.74-0.28-1.7-1.56-2.51-1.37c-0.75,0.18-1.42,1.58-1.74,2.2
					c-0.87,1.68-1.36,3.59-2.62,5.05c-0.12,0.14-0.25,0.27-0.42,0.34c-0.37,0.14-0.77-0.1-1.06-0.36c-2.42-2.16-2.59-6.5-2.76-9.53
					c-0.27-5.02,2.33-10.09,6.57-12.79c1.41-0.9,2.96-1.54,4.48-2.21c4.95-2.19,9.71-4.79,14.23-7.77c1.96-1.29,3.81-2.17,5.98-3.01
					c3.69-1.44,7.69-1.88,11.61-1.25c4.76,0.77,9.54,1.74,11.05,8.5c1.17,5.26-0.86,10.1-4.4,11.39c-0.08,0.03-0.16,0.05-0.24,0.08
					l-32.86,10.98c-0.07,0.03-0.13,0.06-0.2,0.09c-0.17,0.06-0.35,0.11-0.54,0.16C350.18,306.7,348.57,306.41,347.12,305.86z"/>
				<path d="M358.05,228.86c0.32-0.78,0.74-1.49,1.33-2.05c3.04-2.83,7.84-2.71,11.71-2.84c2.52-0.08,5.05-0.05,7.54,0.36
					c2.65,0.44,4.66,1.47,7.02,2.64c1.33,0.66,2.68,1.34,3.75,2.37c2.47,2.37,2.99,6.1,3.06,9.53c0.07,3.42-2.9,38.36-2.72,38.36
					c-4.4-0.2-8.8-0.24-13.2-0.47c-2.25-0.12-4.5-0.22-6.75-0.44c-1.23-0.12-2.46,0.02-3.69-0.12c-1.37-0.15-1.23-0.73-2.17-1.32
					c-0.47-0.3-0.88-0.05-1.2-0.46c-0.26-0.33-0.13-1.61-0.16-2.05c-0.09-1.46-0.15-2.93-0.3-4.39c-0.17-1.64-0.6-3.21-0.72-4.89
					c-0.31-4.14-0.47-8.32-1.35-12.4c-0.79-3.65-2.15-7.16-2.88-10.82c-0.5-2.51-0.69-5.15-0.18-7.68
					C357.38,231.14,357.61,229.93,358.05,228.86z"/>
				<path class="st5" d="M374.13,218.41c0.55-0.71,0.41-0.57,0.63-1.5l2.15-9.26l-13.02-3.03l-1.55,9.4
					c-0.55,2.37,0.3,4.74,2.01,6.24l0.96,6.52c0.36,2.73,2.93,4.6,5.64,4.11c2.71-0.49,4.46-3.14,3.84-5.82L374.13,218.41z"/>
				<path d="M365.11,221.89c1.55-0.06,3.17-0.75,3.61-2.33c-0.02,0.09-0.32,0.17-0.4,0.2c-0.76,0.29-1.63,0.27-2.43,0.19
					c-0.53-0.05-1.08-0.11-1.53-0.39c-0.04-0.03-0.09-0.06-0.14-0.05c-0.05,0.01-0.09,0.04-0.11,0.09c-0.14,0.22-0.07,0.62,0.1,0.81
					c0.16,0.18,0.31,0.29,0.37,0.54c0.06,0.24,0.07,0.5,0.1,0.75C364.7,221.77,364.9,221.84,365.11,221.89z"/>
				<path id="XMLID_86_" class="st6" d="M363.23,206.63c0.9,0.3,1.88,0.52,2.81,0.76c1.34,0.35,2.7,0.62,4.03,1.01
					c3.54,1.04,2.74,4.55,2.75,7.51c0,0.82,0.07,1.76,0.74,2.23c1.86,1.28,2.31-2.7,2.77-3.62c0.25-0.49,0.62-0.93,0.83-1.44
					c0.42-1.06,0.05-2.26,0.2-3.4c0.07-0.51,0.24-1.01,0.28-1.53c0.18-2.16-1.8-4.14-3.57-5.01c-1.42-0.69-2.93-1.66-3.81-3.02
					c-0.14-0.22-0.27-0.46-0.47-0.62c-0.15-0.13-0.34-0.21-0.53-0.28c-1.05-0.36-2.28-0.16-3.17,0.52c-0.28,0.21-0.53,0.47-0.85,0.6
					c-0.5,0.2-1.06,0.06-1.59,0.03c-0.79-0.05-1.61,0.15-2.19,0.68c-0.58,0.53-0.85,1.42-0.54,2.15c0.19,0.44,0.55,0.77,0.75,1.2
					c0.46,0.98,0.24,1.76,1.35,2.15C363.08,206.58,363.16,206.61,363.23,206.63z"/>
				<path id="XMLID_84_" class="st1" d="M371.44,214.53c-0.17,0.74,0.29,1.48,1.03,1.66c0.74,0.17,1.48-0.29,1.66-1.03
					c0.17-0.74-0.29-1.48-1.03-1.66C372.35,213.33,371.61,213.79,371.44,214.53z"/>
				<path class="st8" d="M340.59,292.32c-1.21,1.91-1.96,4.12-2.51,6.31c-0.87,3.46-1.73,7.04-1.21,10.57
					c0.15,1.04,0.43,2.05,0.49,3.1c0.11,1.86-0.47,3.7-0.45,5.56c0.01,1.33,0.33,2.64,0.6,3.95c0.66,3.27,0.86,6.43,0.74,9.75
					c-0.04,1.07-0.08,2.14-0.14,3.2c-0.04,0.85,0.1,2.07-0.31,2.81c1.26,0.19,2.53,0.35,3.79,0.52c2.35,0.32,4.71,0.64,7.08,0.81
					c0.73,0.05,2.32,0.45,2.95-0.03c0.53-0.41,0.6-1.66,0.75-2.24c1.08-4.35,2.02-8.91,1.14-13.39c-0.16-0.81-0.37-1.61-0.46-2.42
					c-0.11-1.02-0.02-2.05,0.12-3.07c0.57-4.22,1.6-8.35,2.15-12.57c0.57-4.44,0.96-8.92,1.3-13.38c0.61-7.91-10.24-5.34-13.89-2.04
					C341.88,290.51,341.18,291.38,340.59,292.32z"/>
				<path class="st6" d="M307.84,194.16c-0.11,0-0.22,0-0.33,0C307.51,194.19,307.84,194.12,307.84,194.16z"/>
			</g>
			<path class="st5" d="M377.36,233.22c-1.41,1.34-3.59,2.36-5.23,3.43c-1.42-1.27-3.12-2.22-4.94-2.76
				c-1.02-0.3-2.07-0.48-3.07-0.84c-4.52-1.65-8-5.06-12.66-6.57c-2.33-0.76-4.93-1.31-6.53-3.17c-1.97-2.28-2.35-5.7-3.8-8.29
				c-0.57-1.02-1.47-1.89-2.65-0.78c-0.91,0.85-0.59,2.52-0.4,3.6c0.29,1.64,0.63,3.26,0.98,4.89c0.5,2.37,0.77,3.2,2.91,4.37
				c2.14,1.16,4.26,2.61,5.92,4.39c1.08,1.15,1.96,2.47,2.99,3.65c3.64,4.18,8.95,6.53,12.99,10.33c1.95,1.83,4.02,4.33,6.97,3.52
				c0.96-0.26,12.2-3.24,11.84-3.88c-1.37-2.43-2.35-4.69-3.36-7.26C378.73,236.27,377.9,234.79,377.36,233.22z"/>
			<path class="st13" d="M389.67,240.07c-1.57,2.55-4.08,4.49-6.94,5.37"/>
			<path class="st5" d="M300.34,200.77c-0.01,0.04-0.01,0.07-0.02,0.11"/>
			<g>
				<path d="M347.06,263.73h-49.01c-0.85,0-1.58-0.59-1.76-1.42l-6.09-28.19c-0.24-1.12,0.61-2.18,1.76-2.18h49.01
					c0.85,0,1.58,0.59,1.76,1.42l6.09,28.19C349.06,262.67,348.21,263.73,347.06,263.73z"/>
				<path d="M320.29,271.75l0.97-11.6c0.09-1.1-0.77-2.04-1.88-2.04c-0.98,0-1.79,0.75-1.88,1.72l-1,11.92h-7.07v1.2h18.13v-1.2
					H320.29z"/>
				<path class="st1" d="M311.92,238.39c-0.14-1.19-2.03-1.21-1.89,0c0.15,1.3,0.3,2.59,0.45,3.89c0.14,1.19,2.03,1.21,1.89,0
					C312.22,240.98,312.07,239.68,311.92,238.39z"/>
				<path class="st1" d="M315.7,238.39c-0.14-1.19-2.03-1.21-1.89,0c0.15,1.3,0.3,2.59,0.45,3.89c0.14,1.19,2.03,1.21,1.89,0
					C316,240.98,315.85,239.68,315.7,238.39z"/>
				<path class="st1" d="M319.47,238.39c-0.14-1.19-2.03-1.21-1.89,0c0.15,1.3,0.3,2.59,0.45,3.89c0.14,1.19,2.03,1.21,1.89,0
					C319.77,240.98,319.62,239.68,319.47,238.39z"/>
				<path class="st1" d="M323.25,238.39c-0.14-1.19-2.03-1.21-1.89,0c0.15,1.3,0.3,2.59,0.45,3.89c0.14,1.19,2.03,1.21,1.89,0
					C323.55,240.98,323.4,239.68,323.25,238.39z"/>
				<path class="st1" d="M327.03,238.39c-0.14-1.19-2.03-1.21-1.89,0c0.15,1.3,0.3,2.59,0.45,3.89c0.14,1.19,2.03,1.21,1.89,0
					C327.33,240.98,327.18,239.68,327.03,238.39z"/>
			</g>
			<path d="M358.61,263.99c0.13,0.86,0.14,1.87-0.51,2.45c-0.37,0.33-0.88,0.44-1.37,0.55"/>
			<path class="st6" d="M368.16,245.55c0.12,0.63,0.65,1.17,1.28,1.3c0.63,0.13,1.33-0.14,1.7-0.67"/>
			<path class="st6" d="M250.91,205.99c0.27-0.1,0.51-0.3,0.64-0.56C251.62,205.43,250.84,205.99,250.91,205.99z"/>
		</g>
		<g>
			<rect id="XMLID_599_" x="112.67" y="272.85" width="305.08" height="3.37"/>
			<polygon id="XMLID_597_" points="414.58,352.94 412.26,352.94 393.27,273.5 395.6,273.5 			"/>
			<polygon id="XMLID_8_" points="393.57,352.94 391.25,352.94 372.27,273.5 374.59,273.5 			"/>
			<polygon id="XMLID_3_" points="116.67,352.94 118.99,352.94 137.98,273.5 135.65,273.5 			"/>
			<polygon id="XMLID_19_" points="137.68,352.94 140,352.94 158.98,273.5 156.66,273.5 			"/>
		</g>
		<path d="M298.97,306.49c-1.02-4.84-9.74-4.46-13.68-5.14c-5.34-0.93-10.69-1.82-16.02-2.78c-1.2-0.21-2.54-0.39-3.63,0.28
			c-0.6,0.37-1.03,0.96-1.43,1.53c-1.58,2.29-2.94,4.79-3.36,7.44c-0.42,2.65,0.23,5.47,2.17,7.16c1.76,1.53,4.29,1.94,6.7,2.25
			c1.46,0.19,2.86,0.53,4.3,0.77c0.83,0.14,1.67,0.04,2.37,0.52c2.09,1.41,1.52,4.77,0.97,6.94c-0.53,2.06-1.2,4.22-0.67,6.19
			c0.14,0.53,0.37,1.04,0.46,1.59c0.1,0.68-0.02,1.4-0.14,2.1c-0.65,3.7-1.95,7.66-0.53,11.16c0.17,0.41,0.38,0.81,0.46,1.26
			c0.06,0.37,0.01,0.75-0.03,1.13c-0.29,2.51-0.57,5.01-0.86,7.52c0-0.01,8.58,0.4,9.24,0.41c0.99,0.01,3.17,0.39,4.07-0.16
			c1.39-0.85,1.68-5,1.92-6.53c0.34-2.17,0.48-4.37,0.9-6.52c0.75-3.89,2.37-7.57,3.07-11.46c0.35-1.94,0.22-3.99,0.61-5.91
			c0.33-1.61,0.74-3.23,1.02-4.88c0.66-3.96,1.32-7.92,1.99-11.89c0.15-0.9,0.3-1.81,0.17-2.69
			C299,306.67,298.98,306.58,298.97,306.49z"/>
		<path class="st8" d="M297.29,328.82c-0.25,0.65-0.5,1.31-0.75,1.96c-0.64,1.66-1.28,3.35-1.37,5.12
			c-0.09,1.78,0.39,3.54,0.43,5.33c0.06,3.03-1.48,5.65-1.51,8.6c-0.01,1.1,0.3,2.17,0.38,3.27c0.08,1.11-0.07,2.22-0.22,3.32
			c-0.24,1.78-0.49,3.56-0.73,5.34c-0.2,1.46-0.65,2.44,1.02,2.6c4.42,0.43,8.66-0.25,13.06-0.54c0.18-0.01,0.38-0.03,0.51-0.16
			c0.1-0.1,0.14-0.24,0.17-0.37c1.59-6.17,3.1-12.13,3.87-18.45c0.07-0.57,0.14-1.14,0.38-1.66c0.3-0.66,0.86-1.16,1.31-1.73
			c1.13-1.4,1.16-2.86,1.64-4.48c0.47-1.58,1.03-3.09,1.38-4.73c0.83-3.88,1.66-7.76,2.48-11.64c0.68-3.22,1.49-6.09-0.22-9.16
			c-0.55-0.99-1.43-1.76-2.31-2.48c-7.7-6.24-17.47-9.88-27.37-10.2c-3.71-0.12-8.36-0.36-9.75-3.8c-0.52-1.3-0.4-2.75-0.61-4.13
			c-0.61-4.03-6.87-4.97-10.13-3.92c-4.39,1.42-5.77,6.87-6.25,11.46c-0.4,3.76-0.66,7.63,0.42,11.25
			c1.61,5.4,6.11,9.61,11.27,11.87c4.06,1.78,8.48,2.43,12.87,2.69c3.36,0.2,6.67-0.44,9.99-0.81c2.36-0.27,1.99,0.4,1.24,2.36
			C298.09,326.76,297.69,327.79,297.29,328.82z"/>
		<path class="st5" d="M267.77,228.74c0.12,0.58,0.24,1.17,0.34,1.76c0.2,1.16,0.31,2.49-0.47,3.37c-0.45,0.51-1.14,0.76-1.6,1.27
			c-0.68,0.74-0.73,1.86-0.58,2.85c0.18,1.19,0.19,2.24,0.26,3.4c0.07,1.25,0.61,2.4,0.56,3.68c-0.1,2.41-1.86,4.01-4.19,3.85
			c-1.38-0.1-2.94-0.28-3.77-1.39c-0.41-0.54-0.57-1.22-0.72-1.88c-1.14-4.96-2.27-10.15-0.99-15.08c0.47-1.82,1.07-3.97,2.16-5.54
			c0.78-1.13,1.65-2.61,2.74-3.46c1.01-0.79,2.54-1.08,3.57-0.31c0.69,0.51,1.01,1.37,1.28,2.18
			C266.92,225.18,267.4,226.95,267.77,228.74z"/>
		<path class="st5" d="M280.38,249.31c0.3-1.82,1.33-3.55,2.95-4.5c1.74-1.03,3.54-2.02,5.45-2.73c0.25-0.09,0.5-0.18,0.76-0.27
			c4.99-1.78,10.24-2.88,15.15-4.88c5.43-2.22,10.66-4.86,15.99-7.31c3.59-1.65,7.04-3.43,10.2-5.81c2.68-2.02,1.84-6.06,3.12-8.83
			c0.55-1.19,1.59-2.43,2.56-0.81c0.89,1.5,0.64,3.5,0.85,5.17c0.22,1.66,0.44,3.34-0.3,4.92c-0.52,1.11-1.45,1.96-2.36,2.78
			c-0.88,0.79-1.76,1.58-2.64,2.37c-1.01,0.91-2.01,1.88-3.08,2.69c-3.36,2.54-6.6,5.24-9.71,8.08c-3.07,2.81-5.87,5.69-9.4,7.97
			c-3.4,2.21-7.31,4.09-11.21,5.13c-0.06,0.02-0.13,0.03-0.19,0.05c-3.9,1.06-7.46,2.65-11.64,2.22
			C283.6,255.2,279.76,253.07,280.38,249.31z"/>
		<path d="M278.01,289.54c0,0.12-10.69,0.66-11.67,0.73c-1.93,0.12-4.41,0.71-6.31,0.39c-1.21-0.21-1.73-1.49-3.16-1.22
			c-0.86,0.16-1.88,0.47-2.51-0.13c-0.41-0.39-0.46-1.01-0.49-1.57c-0.22-4.02-0.44-8.05-0.67-12.07c-0.18-3.32-4.28-4.23-6.67-5.75
			c-1.63-1.03-3.26-2.06-4.88-3.09c3.05-6.59,7.3-12.3,12.3-17.52c5.25-5.47,8.97-5.96,16.64-6.04c6.2-0.06,12.39-0.88,18.4-2.44
			c1.43,5.09,2.95,10.23,4.33,15.29c-3.52,1.91-7.8,3.29-11.63,4.56c-1.14,0.43-2.36,0.93-2.98,1.98c-0.48,0.82-0.51,1.82-0.51,2.77
			C278.13,273.48,278.07,281.51,278.01,289.54z"/>
		<g>
			<line class="st14" x1="411.43" y1="406.12" x2="393.14" y2="406.12"/>
			<g>
				<g>
					<path d="M397.56,360.16c0.01-0.18,0.03-0.36,0.06-0.54c0.32-1.96,1.87-3.46,2.93-5.15c1.03-1.64,1.62-3.55,1.7-5.48
						c0.15-3.63,0.05-8.28,1.61-11.63c1.41-3.03,4.75-4.67,6.47-7.51c0.95-1.57,1.24-3.43,1.66-5.22c0.67-2.84,1.75-5.65,3.65-7.87
						c1.48-1.72,3.4-3.01,5.29-4.27c1.84-1.23,3.7-2.47,5.78-3.2c2.74-0.97,5.77-1.29,7.04,1.53c1.02,2.28,0.51,5.5-0.57,7.65
						c-0.94,1.86-2.43,3.38-3.83,4.93c-2.43,2.69-4.65,5.56-6.65,8.58c-0.56,0.84-1.11,1.74-1.23,2.74
						c-0.12,0.97,0.17,1.94,0.3,2.92c0.62,4.94-1.41,8.93-5.22,11.93c-3.01,2.37-4.89,3.72-5.65,7.83
						c-0.47,2.54-0.68,5.24-2.09,7.41c-0.58,0.88-1.33,1.64-2.02,2.44c-2.54,2.98-4.12,6.76-4.47,10.66
						c-0.17,1.95-0.59,6.35-3.72,5.47c-3.84-1.08-3.37-12.29-2.25-14.94c0.48-1.13,1.2-2.17,1.42-3.38
						C398.09,363.44,397.47,361.78,397.56,360.16z"/>
					<path class="st8" d="M381.93,366.67c-0.82-0.59-1.54-1.26-1.98-2.17c-1.17-2.46,0.64-4.14,0.77-6.45
						c0.12-2.09-1.68-3.41-2.83-4.87c-1.44-1.83-1.77-4.47-0.83-6.6c0.42-0.94,1.07-1.86,0.93-2.88c-0.1-0.74-0.62-1.35-1.01-1.99
						c-1.1-1.83-1.16-4.24-0.14-6.13c0.57-1.06,1.47-1.98,1.71-3.17c0.16-0.79,0.02-1.61-0.13-2.41c-0.48-2.58-0.93-5.19-0.77-7.81
						c0.07-1.14,0.28-2.32,0.94-3.26c0.59-0.84,1.61-1.53,2.68-1.25c1.11,0.29,1.26,1.18,1.66,2.08c1.14,2.6,1.44,4.93,1.94,7.72
						c0.09,0.49,0.2,0.99,0.49,1.39c0.31,0.45,0.8,0.73,1.26,1.03c2.95,1.91,5.36,5.07,5.34,8.59c-0.01,2.06-0.84,4.05-0.86,6.11
						c-0.01,0.53,0.05,1.09,0.37,1.51c0.29,0.39,0.76,0.59,1.19,0.81c1.28,0.65,2.49,1.57,3.11,2.87c0.69,1.47,0.52,3.21,0.03,4.76
						c-0.49,1.55-1.27,3-1.79,4.54c-0.13,0.38-0.24,0.78-0.2,1.19c0.09,0.96,0.88,1.42,1.4,2.13c0.55,0.76,0.6,1.26,0.89,2.11
						c0.77,2.26,1.57,4.12,1.2,6.59c-0.15,0.98-0.44,1.94-0.54,2.93c-0.21,1.97,0.32,3.93,0.62,5.89c0.2,1.3,0.69,4.34-0.65,5.24
						c-1.15,0.77-2.78-0.5-3.75-1.06c-3.03-1.76-5.17-3.18-5.65-6.81c-0.34-2.58,0-5.56-1.71-7.74
						C384.68,368.34,383.2,367.59,381.93,366.67z"/>
					<path class="st8" d="M401.91,368.26c0.74-1.94,1.74-3.77,2.98-5.43c0.9-1.21,1.93-2.33,2.73-3.6c1.29-2.04,1.96-4.42,3.21-6.49
						c1.91-3.17,5.73-4.98,9.22-3.17c1.23,0.64,2.27,1.57,3.29,2.5c1.14,1.04,2.27,2.11,3.22,3.33c1.9,2.45,2.99,5.42,4.05,8.34
						c1.25,3.44,2.5,6.89,3.75,10.33c0.59,1.64,1.99,5.37,0.62,6.99c-1.33,1.57-4.24-0.69-4.85-2c-0.4-0.85-1-1.61-1.74-2.19
						c-0.95-0.73-2.16-1.22-2.74-2.26c-0.61-1.09-0.5-2.7-1.61-3.26c-0.32-0.16-0.69-0.2-1.03-0.32c-0.95-0.33-1.56-1.24-2.08-2.11
						c-1.18-1.97-2.08-4.19-3.34-6.09c-0.8,0.24-1.51,2.66-2.06,3.43c-0.79,1.12-1.78,2.1-2.9,2.89c-1.72,1.2-3.81,2.01-4.95,3.77
						c-0.63,0.98-0.88,2.14-1.22,3.25c-0.48,1.59-1.99,6.19-4.45,5.41c-1.69-0.53-1.61-3.38-1.63-4.73
						C400.35,373.93,400.87,371,401.91,368.26z"/>
					<path d="M414.86,377.96h-35.68v4.46h2.86l2.32,13.17c1.08,6.14,6.42,10.61,12.65,10.61l0,0c6.23,0,11.57-4.48,12.65-10.61
						l2.32-13.17h2.86V377.96z"/>
					<line class="st10" x1="381.04" y1="382.79" x2="413" y2="382.79"/>
				</g>
			</g>
		</g>
		<g>
			<path class="st15" d="M267.04,299.42c2.88,0.35,5.75,0.69,8.63,1.04c5.17,0.62,10.78,1.46,14.35,5.25
				c2.23,2.36,3.34,5.61,3.68,8.84c0.34,3.23-0.02,6.49-0.39,9.72"/>
			<rect id="XMLID_24_" x="259.36" y="322.96" class="st6" width="1.75" height="38.62"/>
			<path id="XMLID_23_" class="st7" d="M244.93,369.68c0-5.7,10.09-8.09,15.13-8.1c6-0.01,15.13,2.2,15.13,8.1"/>
			<line id="XMLID_15_" class="st7" x1="260.23" y1="371.21" x2="260.23" y2="361.74"/>
			<path id="XMLID_14_" class="st6" d="M277.67,371.06c0,1.37-1.11,2.48-2.48,2.48c-1.37,0-2.48-1.11-2.48-2.48
				c0-1.37,1.11-2.48,2.48-2.48C276.56,368.58,277.67,369.69,277.67,371.06z"/>
			<path id="XMLID_12_" class="st6" d="M262.66,371.06c0,1.37-1.11,2.48-2.48,2.48s-2.48-1.11-2.48-2.48c0-1.37,1.11-2.48,2.48-2.48
				S262.66,369.69,262.66,371.06z"/>
			<path id="XMLID_11_" class="st6" d="M247.66,371.06c0,1.37-1.11,2.48-2.48,2.48c-1.37,0-2.48-1.11-2.48-2.48
				c0-1.37,1.11-2.48,2.48-2.48C246.55,368.58,247.66,369.69,247.66,371.06z"/>
			<path id="XMLID_10_" class="st5" d="M272.11,308.42v-33.16c0-5.74-5.26-10.39-11.75-10.39h-12.94c-6.49,0-11.75,4.65-11.75,10.39
				v37.07c0,8.19,7.58,14.89,16.83,14.89h19.38h22.8c1.09,0,1.98-0.78,1.98-1.75v0c0-0.97-0.89-1.75-1.98-1.75h-5.28
				C279.86,323.72,272.11,316.87,272.11,308.42z"/>
		</g>
		<path class="st5" d="M249.71,219.45c-1.76,0.09-3.53,0.18-5.15,0.76c-3.21,1.14-4.68,3.54-6.31,6.22
			c-1.64,2.69-4.4,4.33-6.46,6.64c-3.82,4.3-4.33,11.2-1.17,16.01c1.04,1.58,2.42,2.93,3.93,4.08c8.41,6.36,22.13,1.82,27.02-7.12
			c2.58-4.72,1.6-10.51,0.55-15.78c-0.58-2.9-0.24-5.19,2.77-6.69c0.78-0.39,1.63-0.63,2.35-1.1c1.76-1.16,2.38-3.67,1.58-5.62
			c-0.8-1.95-2.8-3.28-4.9-3.51c-0.91-0.1-1.85-0.01-2.69,0.34c-2,0.84-3.12,2.97-4.9,4.21
			C254.42,219.2,252.08,219.33,249.71,219.45z"/>
		<path d="M305.12,246.73c-0.1,0.05-0.07,0.19-0.01,0.29c0.36,0.58,1.09,0.86,1.77,0.81c0.68-0.06,1.31-0.41,1.82-0.85"/>
		<g>
			<path class="st5" d="M103.88,360.69c2.45-0.24,5.06-0.01,7.68,0.69c-0.02-4.34-0.14-8.72-0.36-13.11
				c-0.15-2.89-1.23-5.55-4.56-6.12c-2.02-0.34-3.58,0.34-4.2,2.01C100.92,348.23,102.82,356.05,103.88,360.69z"/>
			<path d="M93.71,326.08c0.3,2.78-0.18,5.93-0.29,8.76c-0.12,3.24,1.4,5.71,1.77,8.81c0.34,2.87,0.37,5.97,0.3,8.96
				c0,0.13,0.1,0.23,0.23,0.23h18.86c0.12,0,0.22-0.09,0.23-0.21c0.19-1.94,0.36-3.63,0.36-3.63c0.28-2.77,0.34-5.04-0.43-7.67
				c-0.33-1.11-0.59-2.26-0.81-3.44c-0.34-1.84-0.57-3.72-0.75-5.53c-0.27-2.78-0.27-5.58-0.51-8.36c-0.23-2.71-0.7-5.4-1.16-8.08
				c-1.4-8.13-2.82-16.26-4.76-24.28c-0.98-4.03-2.1-8.03-3.41-11.97c-1.56-4.67-3.51-9.17-6.01-13.43
				c-1.51-2.57-3.3-5.37-6.31-6.31c-2.37-0.74-5.04-1.08-7.39-0.09c-3.18,1.33-5.64,3.94-8.26,6.09c-0.36,1.75-0.72,3.5-1.07,5.25
				c-0.85,4.15,0.27,8.93,2.27,12.59c0.75,1.37,1.65,2.65,2.25,4.08c0.9,2.14,1.07,4.51,1.76,6.73c0.68,2.19,1.84,4.18,2.95,6.19
				C87.7,308.34,92.77,317.34,93.71,326.08z"/>
			<path class="st5" d="M121.16,262c0.41,1.82,0.12,4.12,1.29,5.72c1.15,1.57,4.69,2.11,6.48,2.76c0.39,0.14,0.8,0.29,1.07,0.61
				c0.67,0.77,0.07,2.08-0.86,2.48c-0.94,0.4-2.01,0.19-3.01-0.03c-2.35-0.52-4.7-1.04-7.05-1.56c-0.48-0.11-0.97-0.22-1.4-0.46
				c-1.2-0.68-1.62-2.18-1.8-3.55c-1.31-9.74-10.44-16.19-13.54-25.31c-0.79-2.34-1.28-4.77-1.76-7.19
				c-0.71-3.53-1.36-7.08-2.12-10.6c-0.54-2.53-1.97-4.79-0.45-7.31c1.16-1.93,3.8-2.77,5.92-1.99c3.39,1.26,4.57,5.04,5.61,8.08
				c1.46,4.24,2.67,8.1,2.42,12.67c-0.07,1.21-0.21,2.46,0.21,3.6c0.46,1.27,1.55,2.19,2.42,3.23c2.93,3.5,3.39,8.2,4.45,12.47
				c0.53,2.15,1.58,4.15,2.1,6.26C121.14,261.91,121.15,261.96,121.16,262z"/>
			<path class="st5" d="M69.71,364.81c2.51-0.23,5.06-0.01,7.49,0.67c1.12-4.17,2.15-8.36,3.08-12.58c0.61-2.78,0.23-5.33-2.95-5.87
				c-1.93-0.33-3.67,0.32-4.73,1.93C70.02,352.86,69.86,360.37,69.71,364.81z"/>
			<path d="M89.88,370.06c-1.78,1.15-3.97,1.26-6.02,1.21c-0.21,0-0.41-0.01-0.62-0.01c-3.21,0-6.42-0.12-9.63-0.35
				c-1.31-0.09-2.8-0.22-3.9-1.02c-1.29-0.93-1.1-2.52-0.79-3.92c0.27-1.2,0.44-2.43,0.49-3.65c1.49,0.46,3.19,0.94,4.75,0.79
				c0.87-0.09,1.74-0.31,2.54-0.67c0.4-0.18,0.78-0.4,1.14-0.65c0.19-0.14,0.73-0.77,0.96-0.72c0.21,0.05,0.35,0.61,0.45,0.77
				c0.24,0.38,0.56,0.73,0.89,1.04c0.64,0.6,1.4,1.08,2.23,1.37c0.76,0.27,1.56,0.4,2.35,0.54c1.13,0.2,2.25,0.45,3.35,0.73
				c0.69,0.17,1.38,0.37,1.97,0.76c0.59,0.39,1.07,1.02,1.1,1.73c0.04,0.78-0.46,1.51-1.11,1.96
				C89.99,369.99,89.94,370.03,89.88,370.06z"/>
			<path class="st8" d="M123.15,365.19c-0.19,0.9-1.27,1.58-2.25,1.87c-4.31,1.28-8.94,0.05-13.42,0.42
				c-1.1,0.09-2.23,0.28-3.31,0.01c-2.46-0.62-2.39-3.67-1.81-5.65c0.27-0.91,0.72-1.85,0.47-2.76c1.98,0.41,4.04,0.46,6.04,0.15
				c0.75-0.12,1.52-0.3,2.14-0.74c0.27-0.19,0.57-0.44,0.88-0.34c0.21,0.07,0.33,0.27,0.44,0.46c0.94,1.54,2.26,2.11,3.79,2.88
				c0.65,0.33,1.15,0.67,1.88,0.87c0.89,0.24,1.8,0.41,2.7,0.61c1.02,0.22,2.24,0.62,2.46,1.64
				C123.19,364.81,123.19,365,123.15,365.19z"/>
			<path class="st8" d="M92.21,298.89c-0.47-4.6-0.63-9.21-0.85-13.86c-0.22-4.44-0.79-8.79-1.48-13.17
				c-0.26-1.62-0.05-3.05-0.57-4.65c-0.67-2.05-1.49-4.07-2.61-5.91c-1.63-2.7-3.99-5.05-6.98-6.11c-2.03-0.72-4.29-0.72-6.14,0.39
				c-1.81,1.09-2.81,2.88-3.72,4.73c-0.55,1.11-1.09,2.21-1.64,3.32c-1.19,2.42-2.39,4.86-3.12,7.46s-0.95,5.4-0.19,7.99
				c0.49,1.66,1.43,2.57,2.21,4.01c0.97,1.78,1.55,3.8,1.63,5.83c0.06,1.47-0.15,2.93-0.21,4.39c-0.12,3.29,0.52,6.56,1.39,9.74
				c0.34,1.26,0.73,2.52,0.79,3.82c0.05,1.07-0.12,2.14-0.19,3.21c-0.18,2.9,0.38,5.77,0.53,8.66c0.16,2.97-0.44,5.35-1.55,8.05
				c-0.71,1.73-1.08,3.6-1.09,5.47c-0.01,2.86,0.46,5.77-0.39,8.56c-0.26,0.84-0.64,1.64-0.97,2.46c-1.43,3.5-2.01,7.28-2.56,11.03
				c-0.03,0.2,0.11,0.38,0.31,0.41c1.32,0.17,5.77,1.06,6.18,1.11c4.08,0.48,7.84-0.91,11.81,0.02c0.18,0.04,0.36-0.05,0.42-0.22
				c3.06-8.5,5.41-17.09,7.05-25.96c0.47-2.55,0.13-4.97,0.24-7.48c0.04-0.91,0.33-2.38,0.58-3.25c1.45-5,2.6-9.74,1.75-14.97
				C92.59,302.25,92.38,300.57,92.21,298.89z"/>
			<path d="M98.44,213.67c-1.88-1.66-4.26-2.8-6.67-3.26c-0.88-0.17-1.8-0.24-2.66,0.02c-0.58,0.18-1.09,0.51-1.6,0.83
				c-3.68,2.33-6.82,5.46-8.67,9.47c-1.51,3.28-2.29,6.84-2.95,10.39c-0.39,2.08-4.15,27.43-5.39,27.07
				c1.47,0.43,2.98,0.74,4.42,1.29c2.07,0.78,4.14,1.59,6.17,2.46c4.08,1.74,8.03,3.58,12.34,4.63c0.56-0.44,1.02-0.95,1.39-1.73
				c1.01-2.19,1.77-4.69,2.14-7.07c1.36-8.78,2-18.17,4.26-26.75c1.03-3.91,1.75-8.28,0.58-12.24
				C101.21,216.78,99.99,215.05,98.44,213.67z"/>
			<path class="st5" d="M95.63,261.59c1.09,0.49,2.21,0.97,3.33,1.49c5.17,2.39,10.07,5.37,14.56,8.87c-1.32,1.24-2.5,2.8-2.61,4.61
				c-0.11,1.81,1.29,3.77,3.09,3.69c1.04-1.17,1.18-2.88,1.94-4.26c0.99-1.79,3.93-1.73,4.59-3.07c0.7-1.42-0.89-3.33-1.68-4.34
				c-2.25-2.89-5.74-4.56-8-7.4c-0.81-1.01-1.39-2.19-2.11-3.26c-1.16-1.73-2.69-3.22-4.46-4.33c-3.46-2.18-4.69-5.25-6.38-8.86
				c-0.52-1.11-1.05-2.23-1.34-3.43c-0.38-1.53-0.37-3.13-0.61-4.7c-0.35-2.23-1.2-4.35-2.17-6.39c-0.88-1.85-1.89-3.69-3.39-5.08
				c-1.5-1.39-3.58-2.29-5.6-1.95c-2.51,0.42-4.4,2.68-5.12,5.11c-0.73,2.44-0.5,5.05-0.21,7.57c0.28,2.43,0.65,4.91,1.79,7.07
				c1.1,2.08,2.7,3.85,3.86,5.89c1.11,1.94,1.7,4.05,2.67,6.07C89.5,258.47,92.41,260.12,95.63,261.59z"/>
			<path d="M94.13,212.29c-0.53,0.68-0.92,1.49-1.15,2.33c-1.19,4.38,0.5,9.77,2.33,13.74c0.67,1.46,0.95,3.92,2.57,4.69
				c1.11,0.52,1.91-0.3,2.83-0.76c1.09-0.55,2.25-1.01,3.35-1.58c2.47-1.28,4.88-2.64,7.25-4.1c-1.28-5.98-4.15-12.07-9.49-15.05
				c-1.71-0.96-3.79-1.55-5.62-0.85C95.38,211.03,94.68,211.59,94.13,212.29z"/>
			<path class="st5" d="M87.59,208.12c0.49-1.56,0.87-3.17,1.03-4.92c0.18-1.94,0.18-3.95,0.89-5.76c1.1-2.81,5.03-4.63,7.9-3.94
				c4.05,0.97,2.83,7.77,2.46,10.8c-0.18,1.48-1.3,2.53-2.09,3.75c-1.31,2.04-1.49,5.4-1.69,7.79c-0.02,0.27-0.05,0.57-0.22,0.78
				c-0.2,0.25-0.53,0.34-0.85,0.4c-1.63,0.36-3.28,0.72-4.96,0.69c-2.2-0.04-5.66-0.8-4.63-3.65
				C86.18,212.01,86.97,210.1,87.59,208.12z"/>
			<path d="M98.72,188.49c-1.22-0.08-2.47,0.31-3.38,1.14c-0.39,0.35-0.73,0.78-1.22,0.98c-0.24,0.1-0.51,0.13-0.77,0.17
				c-2.37,0.39-4.55,1.85-5.8,3.9c-0.28,0.46-0.52,0.95-0.59,1.48c-0.05,0.42,0,0.85,0.07,1.27c0.15,0.98,0.34,1.95,0.56,2.92
				c0.1,0.43,0.26,0.87,0.28,1.31c0.01,0.37-0.04,0.71,0.07,1.08c0.44,1.49,1.88,0.8,2.48-0.17c0.49-0.79,0.78-1.68,1.12-2.54
				c0.43-1.1,0.96-2.21,1.9-2.92c0.9-0.68,2.06-0.9,3.17-1.08c1.2-0.19,2.87-0.35,3.74-1.27c0.96-1.01,1.69-2.36,1.58-3.78
				c-0.03-0.35-0.11-0.7-0.28-1c-0.2-0.34-0.51-0.6-0.84-0.81C100.19,188.75,99.46,188.53,98.72,188.49z"/>
			<path class="st1" d="M92.86,199.59c-0.44-0.87-1.48-1.2-2.35-0.75c-0.99,0.51-1.54,1.92-1.33,2.99c0.19,0.95,1.16,1.63,2.02,1.09
				c0.4-0.11,0.77-0.33,1.05-0.62C92.92,201.59,93.33,200.51,92.86,199.59z"/>
			<path d="M91.26,200.7c-0.11-0.49-0.79-0.27-0.73,0.2c0.05,0.39,0.05,0.72,0.31,1.02c0.16,0.18,0.43,0.06,0.5-0.13
				C91.48,201.43,91.33,201.06,91.26,200.7z"/>
			<path d="M91,254.6c-0.12,0.29-0.14,0.63-0.05,0.94c0.15,0.5,0.57,0.88,1.04,1.08c0.11,0.05,0.23,0.09,0.35,0.09
				c0.29,0.02,0.56-0.13,0.81-0.27"/>
			<path d="M77.26,228.81c-0.15,0.79-0.2,1.64-0.16,2.56c0.16,3.47,0.96,6.87,1.75,10.24c1.9-1.82,4.52-2.66,7.04-3.43
				c2.66-0.82,5.31-1.64,7.97-2.45c0.76-0.23,1.62-0.58,1.83-1.34c0.07-0.26,0.05-0.54,0.02-0.81c-0.53-4.98-4.19-14.12-10.63-12.98
				c-1.95,0.34-3.59,1.66-4.96,3.08C78.56,225.28,77.62,226.89,77.26,228.81z"/>
			<path class="st1" d="M90.07,222.06c-0.16-0.12-0.33,0.13-0.2,0.26c1.49,1.62,2.78,3.29,3.73,5.29c1.04,2.21,1.56,4.59,2.45,6.85
				c0.07,0.19,0.34,0.12,0.3-0.08C95.6,230.05,93.72,224.79,90.07,222.06z"/>
			<path d="M94.58,206.13c0.1,0.16,0.25,0.49,0.29,0.57c0.16,0.35,0.3,0.7,0.44,1.06c0.55,1.45,1.1,2.95,1.08,4.5
				c0.01-1.09,0.59-1.97,0.94-2.96c0.36-1.01,0.97-1.91,1.54-2.82c0.26-0.4,0.45-1.17-0.21-0.66c-0.38,0.29-0.83,0.45-1.3,0.52
				c-0.95,0.13-1.92-0.1-2.85-0.29C94.52,206.05,94.55,206.08,94.58,206.13z"/>
			<path d="M96.21,201.95c-0.05,0.16,0.03,0.32,0.11,0.46c0.17,0.28,0.4,0.53,0.68,0.69c0.29,0.16,0.64,0.21,0.95,0.1
				c0.4-0.14,0.68-0.52,0.84-0.91c0.03-0.08,0.05-0.2-0.03-0.23"/>
		</g>
		<g>
			<g>
				<path class="st8" d="M138.39,369.82c0.11-1.54,0.23-2.83,0.24-3.58c0.01-1.4,0.03-2.81-0.2-4.2c-0.32-1.93-1.11-3.74-1.79-5.57
					c-1.51-4.06-2.53-8.49-1.6-12.72c0.63-2.85,2.1-5.46,2.7-8.31c0.43-2.07,0.39-4.21,0.77-6.28c0.31-1.69,2.47-7.29,5.1-5.22
					c0.44,0.35,0.68,0.89,0.88,1.42c0.74,1.96,1.18,4.05,2.18,5.89c1.07,1.97,2.76,3.59,3.59,5.67c0.81,2.01,0.74,4.25,0.51,6.4
					c-0.83,7.48-3.34,14.64-2.3,22.31c0.18,1.3,0.55,11.93-1.36,11.93c-0.65,1.73-1.7,4.41-3.74,4.86
					C137.83,383.62,138.01,375.2,138.39,369.82z"/>
				<path d="M119.23,382.85c-2.17,2.05-3.79,4.61-7.02,5.14c-4.05,0.66-6.12-3.18-4.67-6.75c0.95-2.35,2.94-4.08,4.67-5.94
					c1.92-2.07,3.58-4.39,4.92-6.89c1-1.86,1.88-3.89,3.59-5.14c1.11-0.82,2.47-1.21,3.8-1.59c2.62-0.75,5.44-1.49,8.03-0.62
					c1.62,0.54,2.97,1.67,4.18,2.86c7.06,7.06,6.54,16.21,4.9,25.31c-0.15,0.83-0.37,1.77-1.11,2.16c-1.2,0.64-2.54-0.68-2.96-1.97
					c-1.02-3.12-0.4-5.88-2.45-8.64c-1.66-2.24-4.66-4.02-5.57-6.68c-0.28-0.81-0.4-1.71-0.94-2.37c-0.54-0.66-1.74-0.89-2.19-0.16
					c-0.24,0.38-0.18,0.87-0.14,1.32c0.21,2.86-1.15,5.78-3.47,7.46c-0.95,0.69-2.05,1.18-2.95,1.94
					C119.63,382.48,119.43,382.66,119.23,382.85z"/>
				<path class="st8" d="M142.53,373.49c-0.01-0.41-0.01-0.82,0.04-1.23c0.48-4.31,6.47-4.92,9.44-6.84
					c2.83-1.84,4.58-5.68,8.23-1.91c1.75,1.81,2.94,5.09,3.29,7.54c0.69,4.73,1.35,9.47,1.98,14.21c0.14,1.06,0.27,2.19-0.22,3.14
					c-0.9,1.76-3.57,1.91-5.16,0.73c-2.23-1.37-3.04-5.09-3.9-7.32c-0.41-1.06-0.82-2.15-0.74-3.28c0.1-1.39,0.93-2.71,0.71-4.08
					c-0.07-0.43-0.37-0.92-0.8-0.87c-0.14,0.02-0.26,0.09-0.38,0.17c-1.96,1.27-2.62,3.26-3.83,5.11c-1.27,1.95-2.27,1.72-3.74,3.07
					c-3.05,2.79-2.13,9.09-3.23,12.84c-0.28,0.96-1.22,2.1-2.05,1.54c-0.33-0.23-0.46-0.65-0.55-1.04c-1.01-4.18-1-8.6,0.03-12.77
					c0.44-1.76,1.06-3.51,1.11-5.32C142.8,375.95,142.57,374.72,142.53,373.49z"/>
				<g>
					<path d="M155.89,387.13h-29.25v3.66h2.35l1.91,10.8c0.89,5.03,5.26,8.7,10.37,8.7l0,0c5.11,0,9.48-3.67,10.37-8.7l1.91-10.8
						h2.35V387.13z"/>
					<line class="st10" x1="128.16" y1="391.1" x2="154.36" y2="391.1"/>
				</g>
			</g>
			<line class="st16" x1="135.12" y1="410.46" x2="162.68" y2="410.46"/>
		</g>
		<path d="M372.9,214.26c0.22-0.03,0.46,0.08,0.58,0.28c0.12,0.19,0.11,0.46-0.03,0.64c-0.11,0.15-0.28,0.24-0.46,0.3
			c-0.02,0.01-0.04,0-0.04-0.01"/>
		<path d="M363.41,215.71c-0.05,0.18,0.04,0.36,0.14,0.51c0.17,0.25,0.41,0.48,0.69,0.6c0.34,0.15,0.74,0.14,1.08,0
			c0.34-0.15,0.62-0.42,0.78-0.76c-0.02,0-0.04,0-0.06,0"/>
	</g>
</g>
<g id="DESIGNED_BY_FREEPIK" class="st2">
	<g id="XMLID_302_" class="st17">
		<g id="XMLID_328_">
			<g id="XMLID_351_">
				<path id="XMLID_376_" class="st18" d="M260.1,468.49c-0.43,0.44-0.8,0.93-1.11,1.45l-0.47-0.24c-0.07-0.3-0.35-0.5-0.66-0.47
					c-0.33,0.04-0.57,0.34-0.53,0.67c0.04,0.33,0.34,0.57,0.67,0.53c0.07-0.01,0.13-0.03,0.18-0.05l0.45,0.23
					c-0.25,0.55-0.43,1.14-0.54,1.74l0.75,0.13c0.23-1.31,0.85-2.51,1.79-3.47L260.1,468.49z"/>
				<path id="XMLID_375_" class="st18" d="M265.59,466.19c-0.17,0-0.34,0.01-0.51,0.02l-0.07-0.63c0.19-0.15,0.3-0.39,0.27-0.64
					c-0.05-0.39-0.4-0.67-0.8-0.63c-0.39,0.05-0.67,0.4-0.63,0.8c0.03,0.25,0.19,0.46,0.4,0.56l0.07,0.62
					c-0.71,0.12-1.4,0.33-2.06,0.65l0.33,0.68c0.93-0.45,1.94-0.67,3-0.67c0.5,0,0.99,0.05,1.48,0.16l0.16-0.74
					C266.69,466.25,266.14,466.19,265.59,466.19z"/>
				<path id="XMLID_374_" class="st18" d="M272.19,468.74c0.33-0.04,0.57-0.34,0.53-0.67c-0.04-0.33-0.34-0.57-0.67-0.53
					c-0.31,0.04-0.54,0.3-0.53,0.61l-0.42,0.36c-0.42-0.43-0.89-0.81-1.41-1.14l-0.4,0.64c1.13,0.71,2.02,1.73,2.56,2.93l0.69-0.31
					c-0.25-0.55-0.57-1.07-0.94-1.55l0.4-0.35C272.06,468.74,272.13,468.74,272.19,468.74z"/>
				<path id="XMLID_373_" class="st18" d="M265.04,476.4c-0.39,0.02-0.77,0.03-1.16,0.03c-0.88,0-1.73-0.06-2.48-0.18
					c-0.39-0.06-0.85-0.15-1.27-0.29c1.05,1.86,3.07,3.12,5.39,3.12c2.86,0,5.26-1.92,5.95-4.5c-0.68,0.45-1.51,0.83-2.46,1.12
					C267.84,476.07,266.46,476.31,265.04,476.4z"/>
				<path id="XMLID_352_" class="st18" d="M265.59,467.71c-3.35,0-6.08,2.67-6.08,5.94c0,0.43,0.05,0.85,0.14,1.26
					c0.67,0.48,2.71,0.89,5.35,0.73c2.88-0.17,5.3-0.96,6.67-2.16c-0.01-0.2-0.02-0.39-0.05-0.58
					C271.24,469.94,268.65,467.71,265.59,467.71z M263.43,474.22c-1.02,0-1.85-0.83-1.85-1.85c0-1.02,0.83-1.85,1.85-1.85
					c1.02,0,1.85,0.83,1.85,1.85C265.28,473.39,264.45,474.22,263.43,474.22z M268.17,473.31c-0.75,0-1.36-0.61-1.36-1.36
					c0-0.75,0.61-1.36,1.36-1.36s1.36,0.61,1.36,1.36C269.53,472.7,268.92,473.31,268.17,473.31z"/>
			</g>
			<path id="XMLID_349_" class="st18" d="M281.6,469.57c-0.29-0.12-0.81-0.31-1.38-0.24c-0.55,0.07-0.84,0.34-0.84,1.01v0.87h2.23
				v1.72h-2.23v5.45h-1.93v-5.45h-1.34v-1.72h1.34v-0.89c0-1.68,0.9-2.78,2.57-2.78c0.64,0,1.16,0.12,1.59,0.31L281.6,469.57z"/>
			<path id="XMLID_347_" class="st18" d="M286.3,472.9c-0.18-0.03-0.36-0.05-0.53-0.05c-0.9,0-1.51,0.55-1.51,1.61v3.91h-1.93v-7.17
				h1.87v0.78c0.45-0.67,1.14-0.98,2.02-0.98c0.41,0,0.85,0.13,1.09,0.34L286.3,472.9z"/>
			<path id="XMLID_344_" class="st18" d="M293.97,474.78c0,0.22-0.01,0.49-0.04,0.65h-5.08c0.21,1.04,0.93,1.49,1.84,1.49
				c0.62,0,1.3-0.25,1.81-0.69l1.13,1.24c-0.81,0.75-1.85,1.09-3.06,1.09c-2.2,0-3.72-1.5-3.72-3.75c0-2.26,1.48-3.8,3.63-3.8
				C292.54,471.02,293.96,472.55,293.97,474.78z M288.85,474.12h3.18c-0.18-0.92-0.73-1.44-1.56-1.44
				C289.55,472.68,289.02,473.23,288.85,474.12z"/>
			<path id="XMLID_341_" class="st18" d="M301.62,474.78c0,0.22-0.01,0.49-0.04,0.65h-5.08c0.21,1.04,0.93,1.49,1.84,1.49
				c0.62,0,1.3-0.25,1.81-0.69l1.13,1.24c-0.81,0.75-1.85,1.09-3.06,1.09c-2.2,0-3.72-1.5-3.72-3.75c0-2.26,1.48-3.8,3.63-3.8
				C300.2,471.02,301.61,472.55,301.62,474.78z M296.5,474.12h3.18c-0.18-0.92-0.73-1.44-1.56-1.44
				C297.21,472.68,296.67,473.23,296.5,474.12z"/>
			<path id="XMLID_335_" class="st18" d="M309.96,474.79c0,2.15-1.5,3.77-3.47,3.77c-0.96,0-1.64-0.38-2.11-0.93v3.71h-1.92v-10.13
				h1.89V472c0.47-0.58,1.15-0.98,2.14-0.98C308.47,471.02,309.96,472.64,309.96,474.79z M304.29,474.79c0,1.13,0.75,1.98,1.84,1.98
				c1.14,0,1.85-0.88,1.85-1.98c0-1.1-0.71-1.98-1.85-1.98C305.03,472.81,304.29,473.66,304.29,474.79z"/>
			<path id="XMLID_331_" class="st18" d="M313.07,468.86c0,0.7-0.54,1.23-1.24,1.23c-0.7,0-1.23-0.53-1.23-1.23
				c0-0.7,0.53-1.24,1.23-1.24C312.53,467.62,313.07,468.17,313.07,468.86z M312.81,478.38h-1.93v-7.17h1.93V478.38z"/>
			<path id="XMLID_329_" class="st18" d="M316.03,473.76l2.7-2.55h2.37l-3.48,3.38l3.5,3.8h-2.38l-2.72-2.9v2.9h-1.93v-10.66h1.93
				V473.76z"/>
		</g>
		<g id="XMLID_410_">
			<path id="XMLID_435_" class="st18" d="M184.41,478.32v-1.05c-0.53,0.72-1.39,1.23-2.39,1.23c-1.85,0-3.15-1.41-3.15-3.71
				c0-2.26,1.29-3.72,3.15-3.72c0.95,0,1.82,0.47,2.39,1.25v-3.76h1.1v9.77H184.41z M184.41,476.4v-3.21
				c-0.4-0.62-1.24-1.14-2.12-1.14c-1.42,0-2.27,1.17-2.27,2.74c0,1.57,0.85,2.72,2.27,2.72
				C183.17,477.51,184.02,477.01,184.41,476.4z"/>
			<path id="XMLID_432_" class="st18" d="M186.93,474.77c0-2.05,1.46-3.71,3.49-3.71c2.14,0,3.4,1.67,3.4,3.79v0.28h-5.73
				c0.09,1.33,1.03,2.45,2.55,2.45c0.81,0,1.63-0.32,2.18-0.89l0.53,0.72c-0.7,0.7-1.65,1.08-2.81,1.08
				C188.44,478.49,186.93,476.98,186.93,474.77z M190.4,471.97c-1.51,0-2.26,1.27-2.31,2.36h4.64
				C192.72,473.28,192.01,471.97,190.4,471.97z"/>
			<path id="XMLID_430_" class="st18" d="M194.61,477.38l0.57-0.79c0.47,0.54,1.36,1.01,2.33,1.01c1.08,0,1.67-0.51,1.67-1.22
				c0-1.71-4.38-0.66-4.38-3.28c0-1.1,0.95-2.04,2.64-2.04c1.2,0,2.05,0.45,2.62,1.03l-0.51,0.76c-0.42-0.51-1.2-0.89-2.11-0.89
				c-0.97,0-1.57,0.48-1.57,1.11c0,1.55,4.38,0.53,4.38,3.28c0,1.19-0.95,2.14-2.78,2.14C196.31,478.49,195.32,478.14,194.61,477.38
				z"/>
			<path id="XMLID_427_" class="st18" d="M201.48,469.5c0-0.41,0.34-0.75,0.73-0.75c0.41,0,0.75,0.34,0.75,0.75
				c0,0.41-0.34,0.73-0.75,0.73C201.81,470.23,201.48,469.91,201.48,469.5z M201.67,478.32v-7.07h1.1v7.07H201.67z"/>
			<path id="XMLID_424_" class="st18" d="M204.58,480.13l0.56-0.82c0.59,0.7,1.29,0.97,2.3,0.97c1.17,0,2.27-0.57,2.27-2.12v-1.01
				c-0.51,0.72-1.38,1.26-2.37,1.26c-1.85,0-3.15-1.38-3.15-3.66c0-2.27,1.29-3.68,3.15-3.68c0.95,0,1.8,0.47,2.37,1.25v-1.07h1.1
				v6.87c0,2.34-1.64,3.08-3.37,3.08C206.24,481.19,205.42,480.95,204.58,480.13z M209.71,476.28v-3.09
				c-0.38-0.62-1.23-1.14-2.11-1.14c-1.42,0-2.27,1.13-2.27,2.7c0,1.55,0.85,2.7,2.27,2.7
				C208.48,477.44,209.33,476.89,209.71,476.28z"/>
			<path id="XMLID_422_" class="st18" d="M217.41,478.32v-4.63c0-1.24-0.63-1.64-1.58-1.64c-0.86,0-1.68,0.53-2.09,1.1v5.17h-1.1
				v-7.07h1.1v1.03c0.5-0.59,1.46-1.2,2.52-1.2c1.48,0,2.26,0.75,2.26,2.29v4.97H217.41z"/>
			<path id="XMLID_419_" class="st18" d="M219.93,474.77c0-2.05,1.46-3.71,3.49-3.71c2.14,0,3.4,1.67,3.4,3.79v0.28h-5.73
				c0.09,1.33,1.03,2.45,2.55,2.45c0.81,0,1.63-0.32,2.18-0.89l0.53,0.72c-0.7,0.7-1.66,1.08-2.81,1.08
				C221.44,478.49,219.93,476.98,219.93,474.77z M223.4,471.97c-1.51,0-2.26,1.27-2.31,2.36h4.64
				C225.72,473.28,225.02,471.97,223.4,471.97z"/>
			<path id="XMLID_416_" class="st18" d="M233.35,478.32v-1.05c-0.53,0.72-1.39,1.23-2.39,1.23c-1.85,0-3.15-1.41-3.15-3.71
				c0-2.26,1.29-3.72,3.15-3.72c0.95,0,1.82,0.47,2.39,1.25v-3.76h1.1v9.77H233.35z M233.35,476.4v-3.21
				c-0.4-0.62-1.25-1.14-2.12-1.14c-1.42,0-2.27,1.17-2.27,2.74c0,1.57,0.85,2.72,2.27,2.72
				C232.1,477.51,232.95,477.01,233.35,476.4z"/>
			<path id="XMLID_413_" class="st18" d="M239.69,478.32v-9.77h1.1v3.76c0.57-0.78,1.42-1.25,2.39-1.25c1.85,0,3.15,1.46,3.15,3.72
				c0,2.3-1.3,3.71-3.15,3.71c-1,0-1.86-0.51-2.39-1.23v1.05H239.69z M242.9,477.51c1.44,0,2.29-1.16,2.29-2.72
				c0-1.57-0.85-2.74-2.29-2.74c-0.86,0-1.73,0.53-2.11,1.14v3.21C241.17,477.01,242.04,477.51,242.9,477.51z"/>
			<path id="XMLID_411_" class="st18" d="M247.53,480.09c0.16,0.07,0.43,0.12,0.6,0.12c0.48,0,0.81-0.16,1.05-0.75l0.47-1.07
				l-2.96-7.15h1.19l2.36,5.8l2.34-5.8h1.2l-3.54,8.51c-0.42,1.03-1.14,1.42-2.08,1.44c-0.23,0-0.6-0.04-0.81-0.1L247.53,480.09z"/>
		</g>
	</g>
</g>
</svg>
